<svg width="45" height="45" viewBox="0 0 45 45" fill="none" xmlns="http://www.w3.org/2000/svg">
<rect x="0.38654" y="0.736384" width="43.4497" height="43.4497" rx="9.54781" transform="rotate(-0.243328 0.38654 0.736384)" stroke="black" stroke-width="0.692022"/>
<path d="M28.4598 24.815C28.4555 23.8073 28.2717 22.8903 27.9084 22.0821C27.527 21.2739 27.1285 20.6638 26.677 20.2698C26.2255 19.8938 25.7202 19.554 25.1251 19.2686C24.5302 19.0012 24.1336 18.841 23.9174 18.7879C23.6832 18.7349 23.5031 18.6997 23.3591 18.6823L23.3583 18.4844L23.7537 18.3747C24.2567 18.1746 25.0462 17.6314 25.7809 16.8905C26.5156 16.1676 27.1036 14.7974 27.0972 13.2858C27.0593 8.60722 24.1702 6.2801 18.3938 6.30464L6.71509 6.35423L6.82468 32.159L18.5754 32.1091C25.4135 32.0801 28.4811 29.8356 28.4598 24.815ZM11.3794 28.3787L11.3475 20.8568L18.6534 20.8257C21.9825 20.8116 23.6614 22.0641 23.672 24.5654C23.6826 27.0667 22.0145 28.3335 18.6854 28.3476L11.3794 28.3787ZM11.3322 17.2578L11.3018 10.0958L17.9059 10.0677C20.8211 10.0553 22.2838 11.2368 22.2939 13.6302C22.3041 16.0235 20.8515 17.2173 17.9364 17.2297L11.3322 17.2578Z" fill="black"/>
</svg>
