<svg width="132" height="26" viewBox="0 0 132 26" fill="none" xmlns="http://www.w3.org/2000/svg">
<path d="M22.0792 18.1471C22.0792 16.233 21.2589 14.6266 20.3873 13.8576C19.9601 13.4645 19.4645 13.1398 18.9005 12.8493C18.3366 12.5759 17.9435 12.4221 17.7214 12.3708C17.4992 12.3195 17.3112 12.2853 17.1745 12.2683V12.0119L17.5676 11.9094C18.0632 11.7214 18.8322 11.2087 19.55 10.508C20.2677 9.80736 20.8488 8.47437 20.8488 6.97048C20.8488 2.64682 18.1486 0.49353 12.7312 0.49353H0.802673V25H12.1331C15.6706 25 18.1999 24.4873 19.755 23.4448C21.3102 22.4024 22.0792 20.6422 22.0792 18.1471ZM16.3029 17.5831C16.3029 19.6168 15.0041 20.6251 12.3894 20.6251H6.32261V14.507H12.3894C15.0041 14.507 16.3029 15.5324 16.3029 17.5831ZM15.0725 7.70534C15.0725 9.61937 13.9446 10.5764 11.6887 10.5764H6.32261V4.86846H11.6887C13.9446 4.86846 15.0725 5.80839 15.0725 7.70534Z" fill="black"/>
<path d="M31.0512 25L34.3666 19.5484H37.9383V25H42.9798V7.50026H33.666C28.5391 7.50026 25.9756 9.49974 25.9756 13.5158C25.9756 15.1051 26.5567 16.4894 27.1719 17.2071C27.4624 17.566 27.8213 17.8907 28.2144 18.1642C29.0176 18.7281 29.2056 18.7965 29.3936 18.8477L25.5826 25H31.0512ZM37.9383 11.2087V15.8229H34.3324C32.2133 15.8229 31.1538 15.0539 31.1538 13.5158C31.1538 11.9777 32.2133 11.2087 34.3324 11.2087H37.9383Z" fill="black"/>
<path d="M46.842 19.7535C46.842 23.4961 49.8498 25.3589 55.8653 25.3418C61.9663 25.3418 65.0083 23.6157 65.0083 20.1636C65.0083 18.7794 64.2905 17.6173 63.5556 17.0533C63.1968 16.7799 62.7695 16.5407 62.291 16.3527C61.334 15.9767 61.0606 15.9938 60.8384 15.9425V15.7204L61.2315 15.652C61.7271 15.5665 62.4961 15.2418 63.2138 14.7462C63.9316 14.2677 64.5127 13.2253 64.5127 12.0119C64.5127 10.4226 63.7094 9.22631 62.1201 8.38892C60.5137 7.56862 58.3946 7.15847 55.7628 7.15847C53.1481 7.15847 51.0632 7.61989 49.4738 8.55982C47.8845 9.49974 47.0813 10.884 47.0813 12.6784V13.0715H52.2594V12.9177C52.2594 11.6189 53.4215 10.9694 55.7628 10.9694C58.1382 10.9694 59.3345 11.5334 59.3345 12.6784C59.3345 13.6183 58.2237 14.3874 56.2584 14.3874H53.6266V17.8566H56.002C58.668 17.8566 59.8301 18.3351 59.8301 19.6851C59.813 20.9156 58.4971 21.5308 55.8653 21.5308C53.1139 21.5308 52.0202 20.9839 52.0202 19.5484V19.1554H46.842V19.7535Z" fill="black"/>
<path d="M68.5116 20.0611C68.5116 21.7872 69.1952 23.1031 70.5795 23.9917C71.9637 24.8975 73.6898 25.3418 75.7576 25.3418C77.7229 25.3418 79.3806 24.9658 80.3205 24.5215C81.8073 23.8208 82.3029 22.9834 82.3029 22.898H82.5593L82.6618 23.1372C82.7985 23.479 83.2258 24.0088 83.8068 24.4873C84.3878 24.9829 85.5328 25.3418 86.7804 25.3418C87.8058 25.3418 88.5235 25.2222 88.9508 25V20.796L88.2159 20.9327C87.3956 20.9327 87.0709 20.4883 87.0709 19.0528V13.5842C87.0709 11.448 86.3019 9.84153 84.7638 8.76489C83.2258 7.68825 81.0725 7.15847 78.321 7.15847C75.5867 7.15847 73.4163 7.65407 71.827 8.64526C70.2377 9.63646 69.4174 11.1403 69.4003 13.1398H74.5784C74.5784 12.3879 74.9715 11.8239 75.7576 11.465C76.5266 11.1062 77.3811 10.9353 78.321 10.9353C79.654 10.9353 80.611 11.1916 81.175 11.6872C81.739 12.1999 82.0295 12.8322 82.0295 13.5842V16.1476L81.4655 15.7545C81.1066 15.5324 80.4572 15.2931 79.5173 15.0368C78.5774 14.7975 77.5178 14.6779 76.3557 14.6779C74.0828 14.6779 72.2201 15.1222 70.7333 16.0109C69.2465 16.9166 68.5116 18.2667 68.5116 20.0611ZM77.8254 21.5308C75.074 21.5308 73.6898 20.9669 73.6898 19.8219C73.6898 18.6769 75.074 18.1129 77.8254 18.1129C78.7654 18.1129 79.5857 18.2154 80.3205 18.4034C81.0383 18.5914 81.4826 18.7452 81.6706 18.8648C81.8415 18.9845 81.9611 19.087 82.0295 19.1554V20.1978L81.6706 20.5225C81.4143 20.7447 80.9528 20.9669 80.2522 21.189C79.5515 21.4112 78.7312 21.5308 77.8254 21.5308Z" fill="black"/>
<path d="M110.877 25V7.50026H105.835V14.0798H97.4956V7.50026H92.4541V25H97.4956V18.4205H105.835V25H110.877Z" fill="black"/>
<path d="M115.764 25H124.172C129.521 25 131.982 23.0005 131.982 18.9845C131.982 14.9342 129.556 12.9518 124.172 12.9518H120.806V7.50026H115.764V25ZM126.086 20.7789C125.608 21.1719 124.753 21.3599 123.506 21.3599H120.806V16.5919H123.506C124.753 16.5919 125.608 16.7799 126.086 17.173C126.548 17.566 126.787 18.1642 126.787 18.9674C126.787 19.7877 126.548 20.3858 126.086 20.7789Z" fill="black"/>
</svg>
